<mxfile host="app.diagrams.net" modified="2023-08-03T07:21:37.368Z" agent="Mozilla/5.0 (Windows NT 10.0; Win64; x64) AppleWebKit/537.36 (KHTML, like Gecko) Chrome/115.0.0.0 Safari/537.36 Edg/115.0.1901.188" etag="YBgVyPxuiAx87rW_iPS2" version="21.6.6" type="github">
  <diagram name="第 1 页" id="rZtprluGpIdklK5qmUXH">
    <mxGraphModel dx="2841" dy="1294" grid="1" gridSize="10" guides="1" tooltips="1" connect="1" arrows="1" fold="1" page="1" pageScale="1" pageWidth="827" pageHeight="1169" math="0" shadow="0">
      <root>
        <mxCell id="0" />
        <mxCell id="1" parent="0" />
        <mxCell id="FhwYWp9bJd9N0G8-TKpN-5" value="" style="ellipse;html=1;shape=startState;fillColor=#000000;strokeColor=#ff0000;" vertex="1" parent="1">
          <mxGeometry x="-160" y="175" width="30" height="30" as="geometry" />
        </mxCell>
        <mxCell id="FhwYWp9bJd9N0G8-TKpN-6" value="" style="edgeStyle=orthogonalEdgeStyle;html=1;verticalAlign=bottom;endArrow=open;endSize=8;strokeColor=#ff0000;rounded=0;entryX=0;entryY=0.5;entryDx=0;entryDy=0;exitX=0.858;exitY=0.514;exitDx=0;exitDy=0;exitPerimeter=0;" edge="1" source="FhwYWp9bJd9N0G8-TKpN-5" parent="1" target="FhwYWp9bJd9N0G8-TKpN-10">
          <mxGeometry relative="1" as="geometry">
            <mxPoint x="65" y="170" as="targetPoint" />
            <mxPoint x="-130" y="190" as="sourcePoint" />
            <Array as="points" />
          </mxGeometry>
        </mxCell>
        <mxCell id="FhwYWp9bJd9N0G8-TKpN-10" value="连接Redis数据库" style="rounded=1;whiteSpace=wrap;html=1;arcSize=40;fontColor=#000000;fillColor=#ffffc0;strokeColor=#ff0000;" vertex="1" parent="1">
          <mxGeometry x="5" y="170" width="120" height="40" as="geometry" />
        </mxCell>
        <mxCell id="FhwYWp9bJd9N0G8-TKpN-11" value="" style="edgeStyle=orthogonalEdgeStyle;html=1;verticalAlign=bottom;endArrow=open;endSize=8;strokeColor=#ff0000;rounded=0;" edge="1" source="FhwYWp9bJd9N0G8-TKpN-10" parent="1">
          <mxGeometry relative="1" as="geometry">
            <mxPoint x="65" y="270" as="targetPoint" />
          </mxGeometry>
        </mxCell>
        <mxCell id="FhwYWp9bJd9N0G8-TKpN-12" value="获取APPDL_DB中的接口表项" style="rounded=1;whiteSpace=wrap;html=1;arcSize=40;fontColor=#000000;fillColor=#ffffc0;strokeColor=#ff0000;" vertex="1" parent="1">
          <mxGeometry x="5" y="270" width="120" height="40" as="geometry" />
        </mxCell>
        <mxCell id="FhwYWp9bJd9N0G8-TKpN-13" value="" style="edgeStyle=orthogonalEdgeStyle;html=1;verticalAlign=bottom;endArrow=open;endSize=8;strokeColor=#ff0000;rounded=0;" edge="1" source="FhwYWp9bJd9N0G8-TKpN-12" parent="1">
          <mxGeometry relative="1" as="geometry">
            <mxPoint x="65" y="370" as="targetPoint" />
          </mxGeometry>
        </mxCell>
        <mxCell id="FhwYWp9bJd9N0G8-TKpN-14" value="遍历接口配置文件" style="rounded=1;whiteSpace=wrap;html=1;arcSize=40;fontColor=#000000;fillColor=#ffffc0;strokeColor=#ff0000;" vertex="1" parent="1">
          <mxGeometry x="5" y="370" width="120" height="40" as="geometry" />
        </mxCell>
        <mxCell id="FhwYWp9bJd9N0G8-TKpN-16" value="" style="edgeStyle=orthogonalEdgeStyle;html=1;verticalAlign=bottom;endArrow=open;endSize=8;strokeColor=#ff0000;rounded=0;exitX=0.5;exitY=1;exitDx=0;exitDy=0;entryX=0.5;entryY=0;entryDx=0;entryDy=0;" edge="1" parent="1" source="FhwYWp9bJd9N0G8-TKpN-14" target="FhwYWp9bJd9N0G8-TKpN-17">
          <mxGeometry relative="1" as="geometry">
            <mxPoint x="310" y="430" as="targetPoint" />
            <mxPoint x="220" y="250" as="sourcePoint" />
          </mxGeometry>
        </mxCell>
        <mxCell id="FhwYWp9bJd9N0G8-TKpN-17" value="" style="rhombus;whiteSpace=wrap;html=1;fontColor=#000000;fillColor=#ffffc0;strokeColor=#ff0000;" vertex="1" parent="1">
          <mxGeometry x="25" y="480" width="80" height="40" as="geometry" />
        </mxCell>
        <mxCell id="FhwYWp9bJd9N0G8-TKpN-20" value="恢复接口配置信息" style="rounded=1;whiteSpace=wrap;html=1;arcSize=40;fontColor=#000000;fillColor=#ffffc0;strokeColor=#ff0000;" vertex="1" parent="1">
          <mxGeometry x="5" y="600" width="120" height="40" as="geometry" />
        </mxCell>
        <mxCell id="FhwYWp9bJd9N0G8-TKpN-22" value="删除接口配置文件" style="rounded=1;whiteSpace=wrap;html=1;arcSize=40;fontColor=#000000;fillColor=#ffffc0;strokeColor=#ff0000;" vertex="1" parent="1">
          <mxGeometry x="220" y="480" width="120" height="40" as="geometry" />
        </mxCell>
        <mxCell id="FhwYWp9bJd9N0G8-TKpN-23" value="" style="edgeStyle=orthogonalEdgeStyle;html=1;verticalAlign=bottom;endArrow=open;endSize=8;strokeColor=#ff0000;rounded=0;entryX=0.5;entryY=0;entryDx=0;entryDy=0;" edge="1" source="FhwYWp9bJd9N0G8-TKpN-22" parent="1" target="FhwYWp9bJd9N0G8-TKpN-38">
          <mxGeometry relative="1" as="geometry">
            <mxPoint x="280" y="640" as="targetPoint" />
            <Array as="points" />
          </mxGeometry>
        </mxCell>
        <mxCell id="FhwYWp9bJd9N0G8-TKpN-24" value="" style="edgeStyle=orthogonalEdgeStyle;html=1;verticalAlign=bottom;endArrow=open;endSize=8;strokeColor=#ff0000;rounded=0;exitX=1;exitY=0.5;exitDx=0;exitDy=0;" edge="1" parent="1" source="FhwYWp9bJd9N0G8-TKpN-17" target="FhwYWp9bJd9N0G8-TKpN-22">
          <mxGeometry relative="1" as="geometry">
            <mxPoint x="290" y="330" as="targetPoint" />
            <mxPoint x="290" y="260" as="sourcePoint" />
          </mxGeometry>
        </mxCell>
        <mxCell id="FhwYWp9bJd9N0G8-TKpN-25" value="该接口是否启动dot1x认证" style="edgeLabel;html=1;align=center;verticalAlign=middle;resizable=0;points=[];" vertex="1" connectable="0" parent="FhwYWp9bJd9N0G8-TKpN-24">
          <mxGeometry x="-0.1582" y="2" relative="1" as="geometry">
            <mxPoint x="-189" y="-58" as="offset" />
          </mxGeometry>
        </mxCell>
        <mxCell id="FhwYWp9bJd9N0G8-TKpN-30" value="NO" style="edgeLabel;html=1;align=center;verticalAlign=middle;resizable=0;points=[];" vertex="1" connectable="0" parent="FhwYWp9bJd9N0G8-TKpN-24">
          <mxGeometry x="-0.0386" relative="1" as="geometry">
            <mxPoint x="-9" y="-20" as="offset" />
          </mxGeometry>
        </mxCell>
        <mxCell id="FhwYWp9bJd9N0G8-TKpN-32" value="" style="edgeStyle=orthogonalEdgeStyle;html=1;verticalAlign=bottom;endArrow=open;endSize=8;strokeColor=#ff0000;rounded=0;exitX=0.5;exitY=1;exitDx=0;exitDy=0;entryX=0.5;entryY=0;entryDx=0;entryDy=0;" edge="1" parent="1" source="FhwYWp9bJd9N0G8-TKpN-17" target="FhwYWp9bJd9N0G8-TKpN-20">
          <mxGeometry relative="1" as="geometry">
            <mxPoint x="270" y="430" as="targetPoint" />
            <mxPoint x="270" y="310" as="sourcePoint" />
            <Array as="points">
              <mxPoint x="65" y="560" />
              <mxPoint x="65" y="560" />
            </Array>
          </mxGeometry>
        </mxCell>
        <mxCell id="FhwYWp9bJd9N0G8-TKpN-44" value="Yes" style="edgeLabel;html=1;align=center;verticalAlign=middle;resizable=0;points=[];" vertex="1" connectable="0" parent="FhwYWp9bJd9N0G8-TKpN-32">
          <mxGeometry x="0.021" y="4" relative="1" as="geometry">
            <mxPoint x="-29" as="offset" />
          </mxGeometry>
        </mxCell>
        <mxCell id="FhwYWp9bJd9N0G8-TKpN-33" value="获取STATE_DB中的FDB表项" style="rounded=1;whiteSpace=wrap;html=1;arcSize=40;fontColor=#000000;fillColor=#ffffc0;strokeColor=#ff0000;" vertex="1" parent="1">
          <mxGeometry x="5" y="710" width="120" height="40" as="geometry" />
        </mxCell>
        <mxCell id="FhwYWp9bJd9N0G8-TKpN-34" value="" style="edgeStyle=orthogonalEdgeStyle;html=1;verticalAlign=bottom;endArrow=open;endSize=8;strokeColor=#ff0000;rounded=0;" edge="1" source="FhwYWp9bJd9N0G8-TKpN-33" parent="1">
          <mxGeometry relative="1" as="geometry">
            <mxPoint x="65" y="820" as="targetPoint" />
            <Array as="points">
              <mxPoint x="65" y="800" />
              <mxPoint x="65" y="800" />
            </Array>
          </mxGeometry>
        </mxCell>
        <mxCell id="FhwYWp9bJd9N0G8-TKpN-35" value="" style="edgeStyle=orthogonalEdgeStyle;html=1;verticalAlign=bottom;endArrow=open;endSize=8;strokeColor=#ff0000;rounded=0;exitX=0.5;exitY=1;exitDx=0;exitDy=0;entryX=0.5;entryY=0;entryDx=0;entryDy=0;" edge="1" parent="1" source="FhwYWp9bJd9N0G8-TKpN-20" target="FhwYWp9bJd9N0G8-TKpN-33">
          <mxGeometry relative="1" as="geometry">
            <mxPoint x="180" y="830" as="targetPoint" />
            <mxPoint x="180" y="710" as="sourcePoint" />
            <Array as="points">
              <mxPoint x="65" y="700" />
              <mxPoint x="65" y="700" />
            </Array>
          </mxGeometry>
        </mxCell>
        <mxCell id="FhwYWp9bJd9N0G8-TKpN-36" value="获取APPL_DB中的用户信息表项" style="rounded=1;whiteSpace=wrap;html=1;arcSize=40;fontColor=#000000;fillColor=#ffffc0;strokeColor=#ff0000;" vertex="1" parent="1">
          <mxGeometry x="5" y="820" width="120" height="40" as="geometry" />
        </mxCell>
        <mxCell id="FhwYWp9bJd9N0G8-TKpN-37" value="" style="edgeStyle=orthogonalEdgeStyle;html=1;verticalAlign=bottom;endArrow=open;endSize=8;strokeColor=#ff0000;rounded=0;" edge="1" source="FhwYWp9bJd9N0G8-TKpN-36" parent="1">
          <mxGeometry relative="1" as="geometry">
            <mxPoint x="65" y="920" as="targetPoint" />
          </mxGeometry>
        </mxCell>
        <mxCell id="FhwYWp9bJd9N0G8-TKpN-38" value="" style="ellipse;html=1;shape=endState;fillColor=#000000;strokeColor=#ff0000;" vertex="1" parent="1">
          <mxGeometry x="265" y="925" width="30" height="30" as="geometry" />
        </mxCell>
        <mxCell id="FhwYWp9bJd9N0G8-TKpN-39" value="恢复用户信息" style="rounded=1;whiteSpace=wrap;html=1;arcSize=40;fontColor=#000000;fillColor=#ffffc0;strokeColor=#ff0000;" vertex="1" parent="1">
          <mxGeometry x="5" y="920" width="120" height="40" as="geometry" />
        </mxCell>
        <mxCell id="FhwYWp9bJd9N0G8-TKpN-40" value="" style="edgeStyle=orthogonalEdgeStyle;html=1;verticalAlign=bottom;endArrow=open;endSize=8;strokeColor=#ff0000;rounded=0;exitX=1;exitY=0.5;exitDx=0;exitDy=0;entryX=0;entryY=0.5;entryDx=0;entryDy=0;" edge="1" source="FhwYWp9bJd9N0G8-TKpN-39" parent="1" target="FhwYWp9bJd9N0G8-TKpN-38">
          <mxGeometry relative="1" as="geometry">
            <mxPoint x="65" y="1050" as="targetPoint" />
          </mxGeometry>
        </mxCell>
      </root>
    </mxGraphModel>
  </diagram>
</mxfile>
